<mxfile host="app.diagrams.net" modified="2022-09-22T02:51:51.834Z" agent="5.0 (Windows NT 10.0; Win64; x64) AppleWebKit/537.36 (KHTML, like Gecko) Chrome/105.0.0.0 Safari/537.36" etag="IKksTLGHvkf2SD6_SAjm" version="20.3.3" type="github">
  <diagram id="pVwXtiDufNC5i5--P-i6" name="第 1 页">
    <mxGraphModel dx="1422" dy="762" grid="1" gridSize="10" guides="1" tooltips="1" connect="1" arrows="1" fold="1" page="1" pageScale="1" pageWidth="827" pageHeight="1169" math="0" shadow="0">
      <root>
        <mxCell id="0" />
        <mxCell id="1" parent="0" />
        <mxCell id="5q8ZU8veqML_xea8ayxd-1" value="" style="rounded=1;whiteSpace=wrap;html=1;" vertex="1" parent="1">
          <mxGeometry x="130" y="190" width="630" height="550" as="geometry" />
        </mxCell>
        <mxCell id="5q8ZU8veqML_xea8ayxd-2" value="oneservice-docker-image" style="rounded=1;whiteSpace=wrap;html=1;" vertex="1" parent="1">
          <mxGeometry x="210" y="490" width="120" height="50" as="geometry" />
        </mxCell>
        <mxCell id="5q8ZU8veqML_xea8ayxd-3" value="front-docker-image" style="rounded=1;whiteSpace=wrap;html=1;" vertex="1" parent="1">
          <mxGeometry x="370" y="490" width="120" height="50" as="geometry" />
        </mxCell>
        <mxCell id="5q8ZU8veqML_xea8ayxd-4" value="mysql-docker-image&lt;br&gt;(SQL已打入)" style="rounded=1;whiteSpace=wrap;html=1;" vertex="1" parent="1">
          <mxGeometry x="210" y="550" width="120" height="50" as="geometry" />
        </mxCell>
        <mxCell id="5q8ZU8veqML_xea8ayxd-5" value="redis-docker-image" style="rounded=1;whiteSpace=wrap;html=1;" vertex="1" parent="1">
          <mxGeometry x="370" y="550" width="120" height="50" as="geometry" />
        </mxCell>
        <mxCell id="5q8ZU8veqML_xea8ayxd-7" value="" style="rounded=1;whiteSpace=wrap;html=1;" vertex="1" parent="1">
          <mxGeometry x="520" y="490" width="190" height="110" as="geometry" />
        </mxCell>
        <mxCell id="5q8ZU8veqML_xea8ayxd-8" value="docker离线安装文件" style="shape=card;whiteSpace=wrap;html=1;" vertex="1" parent="1">
          <mxGeometry x="540" y="505" width="50" height="60" as="geometry" />
        </mxCell>
        <mxCell id="5q8ZU8veqML_xea8ayxd-9" value="docker离线安装文件" style="shape=card;whiteSpace=wrap;html=1;" vertex="1" parent="1">
          <mxGeometry x="620" y="505" width="50" height="60" as="geometry" />
        </mxCell>
        <mxCell id="5q8ZU8veqML_xea8ayxd-10" value="" style="rounded=1;whiteSpace=wrap;html=1;" vertex="1" parent="1">
          <mxGeometry x="210" y="210" width="490" height="150" as="geometry" />
        </mxCell>
        <mxCell id="5q8ZU8veqML_xea8ayxd-11" value="启动主脚本" style="shape=card;whiteSpace=wrap;html=1;" vertex="1" parent="1">
          <mxGeometry x="230" y="220" width="50" height="60" as="geometry" />
        </mxCell>
        <mxCell id="5q8ZU8veqML_xea8ayxd-12" value="docker环境安装" style="shape=card;whiteSpace=wrap;html=1;" vertex="1" parent="1">
          <mxGeometry x="294" y="290" width="50" height="60" as="geometry" />
        </mxCell>
        <mxCell id="5q8ZU8veqML_xea8ayxd-13" value="linux初始化" style="shape=card;whiteSpace=wrap;html=1;" vertex="1" parent="1">
          <mxGeometry x="230" y="290" width="50" height="60" as="geometry" />
        </mxCell>
        <mxCell id="5q8ZU8veqML_xea8ayxd-15" value="" style="rounded=1;whiteSpace=wrap;html=1;" vertex="1" parent="1">
          <mxGeometry x="520" y="620" width="190" height="90" as="geometry" />
        </mxCell>
        <mxCell id="5q8ZU8veqML_xea8ayxd-16" value="模板文件" style="shape=card;whiteSpace=wrap;html=1;" vertex="1" parent="1">
          <mxGeometry x="540" y="635" width="50" height="60" as="geometry" />
        </mxCell>
        <mxCell id="5q8ZU8veqML_xea8ayxd-17" value="其他待定文件" style="shape=card;whiteSpace=wrap;html=1;" vertex="1" parent="1">
          <mxGeometry x="620" y="635" width="50" height="60" as="geometry" />
        </mxCell>
        <mxCell id="5q8ZU8veqML_xea8ayxd-18" value="nginx-docker-image" style="rounded=1;whiteSpace=wrap;html=1;" vertex="1" parent="1">
          <mxGeometry x="210" y="610" width="120" height="50" as="geometry" />
        </mxCell>
      </root>
    </mxGraphModel>
  </diagram>
</mxfile>
